<?xml version="1.0" encoding="UTF-8"?>
<svg id="Capa_2" data-name="Capa 2" xmlns="http://www.w3.org/2000/svg" viewBox="0 0 62 57">
  <defs>
    <style>
      .cls-1 {
        fill: #fdf2ed;
        stroke-width: 0px;
      }
    </style>
  </defs>
  <g id="Capa_1-2" data-name="Capa 1">
    <g>
      <path class="cls-1" d="M33.99,12.51c-2.15-.42-4.27-.45-6.37-.03-6.75,1.36-11.36,5.04-13.5,11.07-3.15,8.87,2.47,18.25,12.24,20.7,1.45.36,2.93.55,4.44.56.96,0,1.5.64,1.21,1.36-.17.43-.57.65-1.19.64-3.08-.04-6.02-.66-8.76-1.95-4.71-2.22-8.08-5.6-9.8-10.2-2.39-6.41-1.36-12.43,3.3-17.7,4.72-5.34,10.99-7.44,18.4-6.59,1.01.12,1.99.42,2.99.62.27.05.57.06.83,0,.96-.19,1.92-.42,2.88-.61.66-.13,1.19.08,1.41.49.24.45.12.88-.39,1.34-.16.14-.34.26-.56.43.2.14.3.23.42.3,5.07,3.02,8.13,7.26,9.12,12.74.16.86.19,1.74.23,2.62.04.71-.41,1.17-1.08,1.17-.66,0-1.09-.44-1.1-1.16-.03-2.85-.82-5.51-2.36-7.98-1.55-2.47-3.67-4.42-6.32-5.89-.07-.04-.15-.07-.26-.13-.15.2-.3.39-.43.58-5.22,7.87-1.14,18.16,8.37,21.03,4.28,1.29,8.43.91,12.4-1.06.64-.32,1.12-.33,1.51,0,.42.35.46.77.13,1.42-1.56,3.05-3.86,5.53-6.9,7.4-2.1,1.29-4.4,2.2-6.9,2.68-6.7,1.27-12.61-.21-17.68-4.38-3.71-3.06-5.83-6.95-6.34-11.51-.62-5.54,1.17-10.39,5.25-14.51,1.25-1.26,2.69-2.31,4.28-3.18.17-.09.34-.19.51-.29ZM37.96,13.1c-6.63,1.97-12.28,8.21-11.95,16,.33,7.9,6.64,14.4,15.14,15.55,7.85,1.06,14.22-2.71,17.03-6.78-3.75,1.07-7.46,1.11-11.14-.02-3.71-1.13-6.77-3.14-8.93-6.13-4.42-6.13-4.23-12.36-.16-18.62Z"/>
      <path class="cls-1" d="M32.09,4.08c0,.95,0,1.91,0,2.86,0,.71-.4,1.13-1.05,1.14-.68.02-1.13-.4-1.13-1.12-.01-1.96-.01-3.91,0-5.87C29.91.42,30.36,0,31.01,0c.66,0,1.07.42,1.07,1.12.01.99,0,1.97,0,2.96Z"/>
      <path class="cls-1" d="M4.4,29.5c-1.07,0-2.14,0-3.22,0-.61,0-1.03-.3-1.15-.76-.11-.44.07-.89.49-1.09.22-.1.48-.16.73-.16,2.11-.01,4.22-.01,6.33,0,.75,0,1.22.4,1.22.99,0,.63-.45,1.01-1.25,1.01-1.06,0-2.11,0-3.17,0Z"/>
      <path class="cls-1" d="M57.59,29.5c-1.09,0-2.18.01-3.27,0-.59,0-.99-.3-1.11-.74-.12-.44.05-.88.48-1.1.2-.1.45-.17.68-.17,2.16-.01,4.32-.01,6.48,0,.56,0,1,.32,1.11.74.12.44-.08.92-.52,1.12-.22.1-.49.14-.74.14-1.04.01-2.08,0-3.11,0Z"/>
      <path class="cls-1" d="M32.09,53c0,.95,0,1.91,0,2.86,0,.7-.4,1.13-1.05,1.14-.68.01-1.13-.41-1.13-1.12-.01-1.94-.01-3.88,0-5.82,0-.72.44-1.15,1.11-1.14.67,0,1.07.43,1.07,1.17,0,.97,0,1.94,0,2.91Z"/>
      <path class="cls-1" d="M8.69,9.09c.1-.46.29-.79.71-.95.42-.16.84-.13,1.19.17.47.41.92.84,1.38,1.26,1.06.97,2.11,1.95,3.17,2.91.33.3.58.62.48,1.07-.19.8-1.19,1.07-1.88.48-.55-.47-1.06-.97-1.59-1.46-1-.92-2-1.83-2.98-2.76-.21-.2-.32-.48-.48-.73Z"/>
      <path class="cls-1" d="M51.98,8.05c.61.02.97.17,1.15.57.19.41.15.81-.2,1.13-.53.49-1.09.95-1.61,1.44-1.01.93-2,1.88-3,2.81-.33.31-.72.46-1.2.32-.42-.13-.64-.4-.73-.78-.09-.41.13-.73.43-1,.95-.86,1.9-1.71,2.84-2.57.55-.51,1.08-1.04,1.65-1.54.22-.19.53-.3.68-.38Z"/>
      <path class="cls-1" d="M9.91,49.03c-.52-.08-.86-.29-1.04-.66-.19-.38-.15-.78.19-1.09.83-.76,1.67-1.51,2.5-2.28.7-.64,1.38-1.3,2.07-1.95.56-.52,1.2-.57,1.67-.16.5.44.46,1.04-.12,1.57-1.46,1.35-2.93,2.71-4.41,4.04-.24.22-.57.35-.86.52Z"/>
    </g>
  </g>
</svg>