<?xml version="1.0" encoding="UTF-8"?>
<svg id="Capa_2" data-name="Capa 2" xmlns="http://www.w3.org/2000/svg" viewBox="0 0 27.1 50.67">
  <defs>
    <style>
      .cls-1 {
        fill: #fdf2ed;
        stroke-width: 0px;
      }
    </style>
  </defs>
  <g id="Capa_1-2" data-name="Capa 1">
    <path class="cls-1" d="M27.1,8.01c-1.4,0-2.66-.08-3.91.02-.97.08-1.97.25-2.87.62-1.15.46-2.07,1.39-2.13,2.66-.12,2.47-.03,4.96-.03,7.57h8.62c-.49,3.14-.96,6.13-1.45,9.25h-7.24v22.54h-9.88v-22.5H0v-9.26h8.19c0-1.4-.05-2.66.01-3.91.12-2.28.02-4.63.51-6.84C9.94,2.65,14.1-.29,19.74.02c2.13.12,4.27.17,6.41.31.33.02.9.36.91.56.06,2.32.04,4.65.04,7.11Z"/>
  </g>
</svg>