<?xml version="1.0" encoding="UTF-8"?>
<svg id="Capa_2" data-name="Capa 2" xmlns="http://www.w3.org/2000/svg" viewBox="0 0 46.09 45.97">
  <defs>
    <style>
      .cls-1 {
        fill: #fdf2ed;
        stroke-width: 0px;
      }
    </style>
  </defs>
  <g id="Capa_1-2" data-name="Capa 1">
    <g>
      <path class="cls-1" d="M23.03,45.96c-3.37,0-6.73,0-10.1,0C5.34,45.94,0,40.58,0,33.01c0-6.85,0-13.7,0-20.55C0,5.6,5.5.05,12.36.02c7.09-.03,14.18-.02,21.27,0,6.8.02,12.34,5.44,12.41,12.28.08,7.05.07,14.1,0,21.15-.08,7.17-5.47,12.45-12.66,12.52-3.45.03-6.89,0-10.34,0ZM23.01,41.92c3.4,0,6.81.01,10.21,0,5.11-.03,8.75-3.69,8.75-8.78,0-6.73,0-13.46,0-20.19,0-5.25-3.62-8.89-8.88-8.9-6.73-.01-13.46-.01-20.19,0-5.23.01-8.87,3.65-8.89,8.9-.02,6.69-.02,13.38,0,20.07.01,5.26,3.64,8.87,8.9,8.89,3.36.01,6.73,0,10.09,0Z"/>
      <path class="cls-1" d="M22.99,35.52c-6.92,0-12.48-5.62-12.47-12.59.01-6.84,5.65-12.49,12.47-12.5,6.86,0,12.68,5.74,12.66,12.5-.02,6.95-5.69,12.58-12.66,12.59ZM14.78,22.9c-.03,4.62,3.63,8.34,8.22,8.36,4.51.02,8.21-3.67,8.23-8.22.02-4.51-3.69-8.24-8.21-8.24-4.47,0-8.21,3.67-8.24,8.1Z"/>
      <path class="cls-1" d="M38.04,10.75c-.04,1.46-1.34,2.66-2.82,2.6-1.44-.06-2.6-1.28-2.56-2.72.04-1.49,1.3-2.66,2.8-2.6,1.41.06,2.61,1.33,2.58,2.72Z"/>
    </g>
  </g>
</svg>