<?xml version="1.0" encoding="UTF-8"?>
<svg id="Capa_2" data-name="Capa 2" xmlns="http://www.w3.org/2000/svg" viewBox="0 0 63.59 58.29">
  <defs>
    <style>
      .cls-1 {
        fill: #fdf2ed;
        stroke-width: 0px;
      }
    </style>
  </defs>
  <g id="Capa_1-2" data-name="Capa 1">
    <g>
      <path class="cls-1" d="M0,5.88c.67-1.13,1.19-2.37,2.05-3.35C3.67.69,5.94,0,8.5,0c15.56,0,31.11-.02,46.67,0,5.07,0,8.42,3.21,8.42,7.89,0,14.17,0,28.34,0,42.52,0,4.67-3.39,7.82-8.45,7.83-15.08,0-30.16-.08-45.24.05C5.17,58.33,1.73,57.13,0,52.19,0,36.76,0,21.32,0,5.88ZM17.56,36.92c.14,0,.27,0,.41-.01,0-.44,0-.89,0-1.33,0-5.01-.02-10.03.01-15.04,0-1.09.36-2.12,1.49-2.69,3.57-1.82,7.15-3.61,10.74-5.41.34-.17.73-.26,1.35-.47,0,3.28,0,6.32-.01,9.35,0,.18-.24.35-.26.53-.06.41-.11.83-.07,1.24.04.35.31.68.31,1.02.01,6.5,0,12.99-.02,19.49,0,.38-.31.74-.38,1.13-.06.34-.13.86.08,1.02.22.18.88.18,1.1,0,.2-.16.12-.68.06-1.02-.07-.44-.36-.87-.36-1.3-.02-6.37,0-12.73-.03-19.1,0-1.01.34-1.91.16-3.05-.48-2.97-.16-6.05-.16-9.33.76.29,1.28.45,1.75.68,3.34,1.66,6.65,3.36,10,5.02,1.32.66,1.88,1.68,1.88,3,.01,5.01,0,10.03,0,15.04,0,.44,0,.87,0,1.31.13,0,.26,0,.39,0,0-.55,0-1.11,0-1.66,0-4.93-.02-9.85.02-14.78,0-.8.68-1.84.32-2.32-.43-.57-1.68-.57-2.49-.97-3.43-1.69-6.83-3.42-10.24-5.16-.36-.18-.8-.4-.97-.7-.63-1.12-1.17-.98-1.79,0-.13.21-.35.41-.58.53-3.82,1.94-7.59,3.99-11.52,5.74-1.33.59-2.6.63-1.3,2.27.16.2.02.6.02.9,0,4.93,0,9.85,0,14.78,0,.44.04.88.07,1.32ZM55.85,47.49c-1.26-.94-46.92-.82-47.96,0h47.96ZM50.62,41.92c.07-2.43-1.78-4.26-4.4-4.34-2.69-.08-4.75,1.69-4.81,4.13-.06,2.47,1.86,4.29,4.58,4.33,2.65.04,4.56-1.66,4.63-4.12ZM12.89,41.79c-.02,2.43,1.86,4.19,4.52,4.24,2.71.05,4.72-1.73,4.72-4.19,0-2.41-1.91-4.22-4.53-4.26-2.69-.05-4.69,1.75-4.71,4.21Z"/>
      <path class="cls-1" d="M48.98,41.87c-.16.72-.24,1.46-.49,2.15-.39,1.09-1.34,1.51-2.55,1.48-1.15-.02-2.2-.44-2.35-1.5-.21-1.43-.25-2.92-.03-4.34.17-1.08,1.28-1.57,2.49-1.55,1.19.01,2.14.46,2.49,1.57.22.7.29,1.44.44,2.2Z"/>
      <path class="cls-1" d="M20.44,41.76c-.14.75-.22,1.49-.44,2.19-.33,1.05-1.19,1.52-2.35,1.55-1.19.03-2.35-.28-2.54-1.43-.24-1.46-.27-2.99-.06-4.45.15-1.01,1.2-1.51,2.36-1.51,1.19,0,2.16.41,2.55,1.5.25.69.32,1.43.47,2.16Z"/>
    </g>
  </g>
</svg>