<?xml version="1.0" encoding="UTF-8"?>
<svg id="Capa_2" data-name="Capa 2" xmlns="http://www.w3.org/2000/svg" viewBox="0 0 44.13 36.29">
  <defs>
    <style>
      .cls-1 {
        fill: #fdf2ed;
        stroke-width: 0px;
      }
    </style>
  </defs>
  <g id="Capa_1-2" data-name="Capa 1">
    <path class="cls-1" d="M0,32.69c4.47-.41,8.82-.77,12.59-4.1-4.22-.46-6.73-2.72-8.4-6.47h3.66c.04-.1.08-.21.12-.31-4.18-1.46-6.32-4.42-6.73-8.7,1.34.34,2.61.67,3.88,1C.86,8.76.16,5.63,2.57,1.67c5.1,5.45,10.95,9.41,18.92,9.48,0-1.25-.15-2.37.02-3.44,1.16-6.97,9.57-10.1,15.14-5.62.87.7,1.55.86,2.53.38,1.26-.62,2.57-1.16,3.98-1.79-.59,2.03-1.95,3.38-3.22,4.92,1.34-.36,2.69-.71,4.19-1.11-.87,1.62-1.93,2.9-3.42,3.78-.57.34-.83.69-.81,1.4.53,16.02-12.42,26.74-26.44,26.63-4.48-.04-8.7-1.13-12.68-3.13-.27-.14-.52-.31-.78-.47Z"/>
  </g>
</svg>