<?xml version="1.0" encoding="UTF-8"?>
<svg id="Capa_2" data-name="Capa 2" xmlns="http://www.w3.org/2000/svg" viewBox="0 0 52.73 52.68">
  <defs>
    <style>
      .cls-1 {
        fill: #fff;
        stroke-width: 0px;
      }
    </style>
  </defs>
  <g id="Capa_1-2" data-name="Capa 1">
    <g>
      <path class="cls-1" d="M1.23,52.61c.36-2.71.68-5.24,1.02-7.76.14-1.04.24-2.09.45-3.12.38-1.84.09-3.49-.65-5.27C-2.61,25.22.87,12.62,10.53,5.26c9.38-7.15,22.64-6.99,32.14.37,8.68,6.72,12.25,18.69,8.68,29.11-3.66,10.71-13.49,17.85-24.61,17.94-3.71.03-7.26-.62-10.71-1.98-.63-.25-1.43-.26-2.11-.15-3.84.62-7.66,1.31-11.49,1.96-.31.05-.63.05-1.2.1ZM6.68,47.24c2.79-.49,5.33-.98,7.9-1.35.71-.1,1.55,0,2.21.28,2.58,1.12,5.23,1.88,8.05,2.09,8.87.66,17.42-4.3,21.32-12.41,3.95-8.23,2.43-17.94-3.84-24.58-6.19-6.55-15.84-8.69-24.07-5.33C5.88,10.99.81,25.25,7.15,37.02c.4.74.57,1.72.5,2.56-.21,2.45-.6,4.89-.97,7.66Z"/>
      <path class="cls-1" d="M21.75,20.07c-.53.82-.94,1.74-1.6,2.42-.55.57-.64,1.01-.35,1.67,1.89,4.41,5.26,7.39,9.38,9.61.35.19,1.12-.1,1.53-.41.84-.62,1.48-1.53,2.36-2.06.51-.31,1.46-.37,1.97-.1,1.15.62,2.17,1.5,3.21,2.32.86.68.96,1.53.3,2.4-.61.8-1.25,1.58-1.93,2.31-1.12,1.2-2.52,1.61-4.12,1.25-8.16-1.87-13.97-6.65-17.53-14.21-.43-.91-.8-1.85-1.11-2.8-1.04-3.19.12-6.31,2.96-8.08,1.47-.91,2.38-.69,3.06.87.66,1.5,1.19,3.05,1.87,4.8Z"/>
    </g>
  </g>
</svg>