<?xml version="1.0" encoding="UTF-8"?>
<svg id="Capa_2" data-name="Capa 2" xmlns="http://www.w3.org/2000/svg" viewBox="0 0 44.4 31.68">
  <defs>
    <style>
      .cls-1 {
        fill: #fdf2ed;
        stroke-width: 0px;
      }
    </style>
  </defs>
  <g id="Capa_1-2" data-name="Capa 1">
    <path class="cls-1" d="M22.21,0c5.02.29,9.96.56,14.89.88.9.06,1.8.28,2.67.54,2.02.6,3.48,1.94,3.75,4.03.45,3.56.82,7.15.87,10.74.04,3.15-.29,6.32-.67,9.46-.34,2.83-2.05,4.68-4.92,5.01-3.81.44-7.64.78-11.47.9-6.85.22-13.7.21-20.51-.66-4.36-.56-5.97-2.28-6.42-6.69-.56-5.53-.54-11.07,0-16.6C.84,3.21,2.67,1.29,7.11.92c5.05-.42,10.11-.62,15.1-.92ZM29.31,15.91c-3.97-2.27-7.65-4.39-11.47-6.58v13.26c3.86-2.25,7.56-4.41,11.47-6.69Z"/>
  </g>
</svg>